<?xml version="1.0" standalone="no"?>
<!DOCTYPE svg PUBLIC "-//W3C//DTD SVG 20010904//EN"
 "http://www.w3.org/TR/2001/REC-SVG-20010904/DTD/svg10.dtd">
<svg version="1.0" xmlns="http://www.w3.org/2000/svg"
 width="512.000000pt" height="512.000000pt" viewBox="0 0 512.000000 512.000000"
 preserveAspectRatio="xMidYMid meet">
<metadata>
Created by potrace 1.11, written by Peter Selinger 2001-2013
</metadata>
<g transform="translate(0.000000,512.000000) scale(0.100000,-0.100000)"
fill="#000000" stroke="none">
<path d="M2480 4628 c-41 -73 -87 -153 -102 -178 -15 -25 -31 -52 -35 -60 -3
-8 -25 -46 -48 -85 -23 -38 -54 -90 -67 -115 -14 -25 -41 -72 -60 -105 -19
-33 -69 -118 -110 -190 -41 -71 -109 -189 -151 -262 -42 -72 -85 -147 -96
-165 -10 -18 -101 -175 -201 -348 -100 -173 -196 -340 -212 -370 -17 -30 -38
-66 -47 -80 -10 -14 -46 -74 -80 -135 -34 -60 -77 -135 -95 -165 -37 -63 -331
-570 -349 -603 -7 -12 -14 -24 -17 -27 -3 -3 -15 -23 -26 -45 -12 -22 -33 -58
-45 -81 -39 -68 -230 -398 -239 -414 -5 -8 -29 -49 -53 -90 -24 -41 -62 -107
-85 -146 -23 -38 -42 -75 -42 -81 0 -6 -4 -13 -8 -15 -5 -1 -29 -39 -54 -83
-25 -44 -62 -109 -83 -145 -21 -36 -49 -85 -63 -110 -14 -25 -36 -62 -49 -82
-12 -21 -23 -41 -23 -45 0 -5 -9 -19 -20 -33 -11 -14 -20 -28 -20 -31 0 -3
1150 -6 2555 -6 1405 0 2555 4 2555 8 0 11 -44 92 -119 217 -33 57 -61 105
-61 107 0 2 -27 50 -61 107 -34 57 -71 121 -84 143 -20 35 -40 71 -115 200
-91 158 -212 367 -229 395 -11 19 -32 57 -47 85 -14 27 -34 60 -44 75 -15 22
-63 105 -125 215 -12 22 -38 67 -57 100 -159 274 -195 335 -215 373 -12 23
-31 55 -42 70 -15 23 -87 146 -203 348 -12 23 -70 123 -128 222 -58 100 -114
199 -126 219 -12 21 -68 119 -126 218 -58 99 -116 200 -130 225 -14 25 -58
101 -98 170 -40 69 -84 145 -98 170 -14 25 -33 57 -43 72 -11 14 -19 29 -19
33 0 4 -15 32 -34 63 -78 129 -156 263 -156 267 0 2 -27 49 -60 105 -33 56
-60 106 -60 111 0 5 -3 9 -7 9 -5 0 -19 23 -32 50 -14 28 -27 50 -30 50 -4 0
-40 -60 -81 -132z"/>
</g>
</svg>
