<?xml version="1.0" encoding="UTF-8" standalone="no"?>
<svg
   xmlns:dc="http://purl.org/dc/elements/1.1/"
   xmlns:cc="http://creativecommons.org/ns#"
   xmlns:rdf="http://www.w3.org/1999/02/22-rdf-syntax-ns#"
   xmlns:svg="http://www.w3.org/2000/svg"
   xmlns="http://www.w3.org/2000/svg"
   viewBox="0 0 584 682.66669"
   height="682.66669"
   width="584"
   xml:space="preserve"
   id="svg2"
   version="1.1"><metadata
     id="metadata8"><rdf:RDF><cc:Work
         rdf:about=""><dc:format>image/svg+xml</dc:format><dc:type
           rdf:resource="http://purl.org/dc/dcmitype/StillImage" /></cc:Work></rdf:RDF></metadata><defs
     id="defs6" /><g
     transform="matrix(1.3333333,0,0,-1.3333333,0,682.66667)"
     id="g10"><g
       transform="scale(0.1)"
       id="g12"><path
         id="path14"
         style="fill:#231f20;fill-opacity:1;fill-rule:evenodd;stroke:none"
         d="m 355.82,84.8672 v -22.082 c 0,-34.7461 14.485,-49.2344 49.246,-49.2344 h 233.161 c 34.031,0 49.246,14.4883 49.246,49.2344 v 22.082 z m 434.399,0 -43.582,-71.3164 H 853.07 l 41.575,71.3164 z m 244.661,0 41.95,-71.3164 h 106.45 l -43.78,71.3164 z m 269.01,0 V 13.5508 h 94.85 v 71.3164 z m 465.34,0 v -22.082 c 0,-34.7461 14.49,-49.2344 49.25,-49.2344 h 226.64 c 34.76,0 49.25,14.4883 49.25,49.2344 v 22.082 z m 436.89,0 C 2253.76,35.2031 2321,4.86719 2397.72,4.86719 c 76.72,0 143.95,30.33201 191.6,79.95701 z m 563.59,0 V 13.5508 h 94.86 v 71.3164 z m 240.32,0 16.74,-32.9414 c 16.66,-32.586 33.31,-38.375 71.69,-38.375 h 49.96 v 71.3164 z m 244.62,0 v -22.082 c 0,-34.7461 14.49,-49.2344 49.25,-49.2344 h 233.16 c 34.03,0 49.25,14.4883 49.25,49.2344 v 22.082 z m 437.89,0 V 13.5508 h 94.85 v 71.3164 z m 240.32,0 16.74,-32.9414 c 16.66,-32.586 33.31,-38.375 71.69,-38.375 h 49.96 v 71.3164 h -138.39" /><path
         id="path16"
         style="fill:#231f20;fill-opacity:1;fill-rule:evenodd;stroke:none"
         d="M 355.82,164.867 V 84.8672 h 331.653 v 56.1248 h -86.172 v -31.137 c 0,-10.1284 -5.801,-15.9292 -15.934,-15.9292 H 466.609 c -10.132,0 -15.933,5.8008 -15.933,15.9292 v 55.012 z m 483.285,0 -48.886,-79.9959 104.426,-0.0039 37.363,64.0938 c 3.117,5.328 6.121,10.676 8.949,15.871 z m 149.141,0 c 2.867,-5.199 5.863,-10.543 8.93,-15.906 l 37.704,-64.0938 h 104.62 l -49.12,79.9998 z m 315.644,0 V 84.8672 h 94.85 v 79.9998 z m 465.34,0 V 84.8672 h 325.14 v 56.1248 h -86.17 v -31.137 c 0,-10.1284 -5.79,-15.9292 -15.94,-15.9292 h -112.24 c -10.13,0 -15.93,5.8008 -15.93,15.9292 v 55.012 z m 384.38,0 c 12.66,-30.047 30.49,-57.101 52.51,-80.0311 l 383.2,0.0313 c 22.02,22.8908 39.86,49.9458 52.52,80.0308 l -109.91,-0.031 c -30.45,-44.043 -79.13,-71.66 -134.21,-71.66 -55.08,0 -103.77,27.617 -134.2,71.602 z m 616.1,0 V 84.8672 h 94.86 v 79.9998 z m 199.65,0 40.67,-79.9998 h 138.39 v 9.0586 h -9.41 c -15.92,0 -28.23,1.457 -36.2,16.6602 l -27.34,54.281 z m 285.29,0 V 84.8672 h 331.66 v 56.1248 h -86.17 v -31.137 c 0,-10.1284 -5.8,-15.9292 -15.94,-15.9292 h -118.75 c -10.14,0 -15.94,5.8008 -15.94,15.9292 v 55.012 z m 437.89,0 V 84.8672 h 94.85 v 79.9998 z m 199.65,0 40.67,-79.9998 h 138.39 v 9.0586 h -9.41 c -15.92,0 -28.23,1.457 -36.2,16.6602 l -27.34,54.281 h -106.11" /><path
         id="path18"
         style="fill:#231f20;fill-opacity:1;fill-rule:evenodd;stroke:none"
         d="m 450.676,164.867 v 67.371 H 617.23 v 80.371 H 450.676 v 134.692 h 115.863 c 10.145,0 15.934,-5.789 15.934,-15.934 V 400.23 h 86.172 v 78.208 c 0,34.031 -15.215,49.246 -49.247,49.246 H 308.75 v -80.383 h 47.07 V 164.867 Z m 490.281,0 c 12.926,23.719 22.188,44.199 22.188,44.199 1.191,0 11.714,-20.136 25.101,-44.238 l 102.134,0.039 -67.14,109.371 96.31,155.684 c 9.42,15.203 15.21,17.379 31.15,17.379 h 21.72 v 80.383 h -58.66 c -34.75,0 -49.24,-7.25 -66.62,-37.657 l -49.964,-85.453 c -17.379,-29.691 -31.137,-62.273 -31.137,-62.273 -1.445,0 -17.379,32.582 -34.031,62.273 l -49.246,85.453 c -17.371,29.692 -31.137,37.657 -65.887,37.657 h -59.379 v -80.383 h 21.723 c 15.933,0 21.722,-1.446 31.136,-17.379 L 905.941,274.238 839.105,164.867 Z m 457.783,0 v 26.094 h 93.41 c 96.32,0 163.67,69.519 163.67,169.449 0,99.93 -67.35,167.274 -163.67,167.274 h -235.33 v -80.383 h 47.07 v -282.43 z m 465.35,0 v 313.571 c 0,34.031 -14.47,49.246 -49.23,49.246 h -92.7 v -80.383 h 31.14 c 10.15,0 15.93,-5.789 15.93,-15.934 v -266.5 z m 399.43,0 c -20.79,29.981 -33.07,67.649 -33.07,109.371 0,98.481 74.58,173.793 167.27,173.793 92.68,0 167.28,-75.312 167.28,-173.793 0,-41.722 -12.29,-79.39 -33.07,-109.429 l 109.91,0.058 c 13.98,33.27 21.64,70.203 21.64,109.371 0,146.996 -114.42,262.133 -265.76,262.133 -151.34,0 -265.75,-115.137 -265.75,-262.133 0,-39.168 7.66,-76.101 21.64,-109.336 z m 601.05,0 v 40.578 h 47.8 c 26.78,0 37.65,-3.625 48.51,-23.898 l 8.48,-16.68 h 106.11 l -22.62,44.918 c -9.42,18.832 -25.35,26.078 -25.35,26.078 21.72,5.789 85.44,44.164 85.44,136.856 0,97.035 -65.89,154.965 -160.02,154.965 h -230.28 v -80.383 h 47.07 v -282.43 z m 484.94,0 v 67.371 h 166.56 v 80.371 h -166.56 v 134.692 h 115.87 c 10.14,0 15.93,-5.789 15.93,-15.934 V 400.23 h 86.17 v 78.208 c 0,34.031 -15.21,49.246 -49.25,49.246 h -310.65 v -80.383 h 47.07 V 164.867 Z m 437.88,0 v 40.578 h 47.81 c 26.78,0 37.65,-3.625 48.51,-23.898 l 8.48,-16.68 h 106.11 l -22.62,44.918 c -9.42,18.832 -25.35,26.078 -25.35,26.078 21.72,5.789 85.44,44.164 85.44,136.856 0,97.035 -65.89,154.965 -160.02,154.965 h -230.28 v -80.383 h 47.07 v -282.43 z m 0,121.68 v 160.754 h 76.77 c 46.34,0 74.58,-28.961 74.58,-79.653 0,-51.414 -28.24,-81.101 -76.03,-81.101 z m -922.82,0 v 160.754 h 76.76 c 46.34,0 74.58,-28.961 74.58,-79.653 0,-51.414 -28.24,-81.101 -76.03,-81.101 z M 1398.74,272.059 v 175.242 h 77.49 c 52.13,0 82.55,-34.031 82.55,-86.891 0,-53.59 -30.42,-88.351 -83.99,-88.351 h -76.05" /><path
         id="path20"
         style="fill:#231f20;fill-opacity:1;fill-rule:evenodd;stroke:none"
         d="m 731.281,680.516 c 16.719,-18.379 80.614,-80 183.668,-80 77.43,0 133.031,32.738 161.451,80.007 z m 447.929,0 v -18.758 c 0,-36.746 15.86,-52.602 52.6,-52.602 h 242.12 c 36.74,0 52.59,15.856 52.59,52.602 v 18.758 z m 390.74,0 v -71.36 h 229.86 v 71.36 z m 276.77,0 c 16.72,-18.379 80.61,-80 183.67,-80 77.43,0 133.03,32.738 161.45,80.007 z m 399.85,0 v -71.36 h 106.64 c 36.74,0 49.72,15.856 52.59,52.602 l 1.32,18.758 z m 457.68,0 1.32,-18.758 c 2.88,-36.746 15.85,-52.602 52.59,-52.602 h 106.65 v 71.36 z m 209.23,0 v -71.36 h 229.86 v 71.36 z m 326.56,0 c 47.28,-49.911 115.66,-80 198.35,-80 105.73,0 176.22,55 202.84,80.054 l -401.19,-0.054" /><path
         id="path22"
         style="fill:#231f20;fill-opacity:1;fill-rule:evenodd;stroke:none"
         d="m 1076.4,680.516 c 14.16,23.562 21.57,50.722 21.57,79.242 0,169.332 -233.466,160.691 -233.466,223.375 0,23.787 26.664,34.587 52.613,34.587 23.77,0 50.434,-11.53 50.434,-30.267 v -22.328 h 115.299 v 56.205 c 0,78.54 -95.838,111.69 -164.291,111.69 -102.332,0 -183.75,-61.97 -183.75,-154.934 0,-161.406 233.468,-167.883 233.468,-224.816 0,-28.817 -25.949,-38.188 -51.886,-38.188 -64.848,0 -118.176,60.531 -118.176,60.531 l -71.336,-90.074 c 0,0 1.484,-1.879 4.402,-5.078 z m 450.12,0 v 80.679 h -115.29 v -28.101 c 0,-10.082 -5.76,-15.856 -15.84,-15.856 h -71.34 c -10.09,0 -15.85,5.774 -15.85,15.856 v 81.429 h 146.99 V 922.605 H 1308.2 v 93.685 h 69.89 c 10.08,0 15.86,-5.77 15.86,-15.86 v -28.106 h 115.28 v 99.446 c 0,36.74 -15.85,52.59 -52.6,52.59 h -324.26 v -108.07 h 46.84 V 680.512 Z m 273.29,0 v 36.722 h -54.05 v 299.052 h 54.05 v 108.07 h -229.86 v -108.07 h 54.04 V 717.238 h -54.04 v -36.722 z m 392.03,0 c 14.16,23.562 21.57,50.722 21.57,79.242 0,169.332 -233.46,160.691 -233.46,223.375 0,23.787 26.66,34.587 52.61,34.587 23.77,0 50.43,-11.53 50.43,-30.267 v -22.328 h 115.3 v 56.205 c 0,78.54 -95.84,111.69 -164.29,111.69 -102.34,0 -183.75,-61.97 -183.75,-154.934 0,-161.406 233.46,-167.883 233.46,-224.816 0,-28.817 -25.94,-38.188 -51.88,-38.188 -64.85,0 -118.17,60.531 -118.17,60.531 l -71.34,-90.074 c 0,0 1.48,-1.879 4.4,-5.078 z m 215.28,0 10.22,146.257 c 2.88,38.911 0,86.465 0,86.465 h 1.44 c 0,0 15.13,-54.765 28.82,-86.465 l 57.65,-134.746 h 100.88 l 57.64,134.746 c 13.69,31.7 28.82,86.465 28.82,86.465 h 1.44 c 0,0 -2.88,-47.554 0,-86.465 l 10.22,-146.257 h 160.56 v 36.722 h -18.01 c -10.09,0 -15.13,5.774 -15.86,15.856 l -31.7,391.266 h -134.75 l -82.15,-203.196 c -12.96,-32.426 -25.93,-74.215 -25.93,-74.215 h -1.45 c 0,0 -12.97,41.789 -25.93,74.215 l -82.15,203.196 h -134.75 l -31.7,-391.266 c -0.73,-10.082 -5.77,-15.856 -15.86,-15.856 h -18 v -36.722 z m 736.22,0 v 36.722 h -54.05 v 299.052 h 54.05 v 108.07 h -229.86 v -108.07 h 54.04 V 717.238 h -54.04 v -36.722 z m 497.89,0 c 7.86,7.441 11.89,12.226 11.89,12.226 l -65.57,92.238 c 0,0 -56.94,-65.574 -147.01,-65.574 -75.65,0 -138.34,68.453 -138.34,152.766 0,93.668 60.53,141.948 135.46,141.948 33.15,0 79.27,-11.53 79.27,-41.069 v -28.106 h 115.29 v 67.735 c 0,96.55 -136.18,120.34 -197.44,120.34 -153.48,0 -266.61,-113.13 -266.61,-260.848 0,-76.27 26.02,-143.277 71.87,-191.66 l 401.19,0.004" /><path
         id="path24"
         style="fill:#8dcbd6;fill-opacity:1;fill-rule:nonzero;stroke:none"
         d="M 2190,5115.14 4379.48,1322.85 H 0.519531 Z" /><path
         id="path26"
         style="fill:#fab93d;fill-opacity:1;fill-rule:nonzero;stroke:none"
         d="m 1558.7,1785.98 c -10.46,-42.39 -21.96,-97.26 -21.96,-97.26 l -261.62,179.13 c 180.85,712.11 826.18,1238.87 1594.56,1238.87 l 479.94,-0.1 170.31,-294.99 -650.25,0.19 c -633.89,0 -1165.74,-436.8 -1310.98,-1025.84" /><path
         id="path28"
         style="fill:#f89c22;fill-opacity:1;fill-rule:nonzero;stroke:none"
         d="m 2869.68,2811.82 h 650.14 l 170.43,-295.19 -820.57,0.31 c -439.59,0 -816.4,-268.77 -975.07,-650.95 -38.3,-92.26 -55.93,-174.9 -55.93,-174.9 l -257.86,173.77 c 0,0 6.68,24.34 26.03,75.39 193.14,509.46 685.65,871.57 1262.83,871.57" /><path
         id="path30"
         style="fill:#f36917;fill-opacity:1;fill-rule:nonzero;stroke:none"
         d="m 2144.42,1690.89 -250.3,173.91 c 158.38,382.81 535.51,652.14 975.56,652.14 l 820.57,-0.31 170.02,-294.47 -990.59,-0.11 c -340.08,0 -628.01,-223.23 -725.26,-531.16" /><path
         id="path32"
         style="fill:#46ae33;fill-opacity:1;fill-rule:nonzero;stroke:none"
         d="m 2714.7,3855.29 c 0,-908.57 -736.52,-1645.09 -1645.09,-1645.09 l -556.708,0.12 170.266,294.91 386.442,-0.13 c 745.7,0 1350.19,604.49 1350.19,1350.19 l 0.7,185.87 291.6,-177.75 2.6,-8.12" /><path
         id="path34"
         style="fill:#5bbc42;fill-opacity:1;fill-rule:nonzero;stroke:none"
         d="m 2419.8,3855.29 c 0,-745.7 -604.49,-1350.19 -1350.19,-1350.19 H 683.094 l 170.301,294.97 216.215,-0.08 c 582.84,0 1055.3,472.47 1055.3,1055.3 l -0.57,188.24 295.16,-180.12 0.3,-8.12" /><path
         id="path36"
         style="fill:#7aca48;fill-opacity:1;fill-rule:nonzero;stroke:none"
         d="m 1069.61,2799.99 -216.204,0.1 170.184,294.78 46.02,0.01 c 419.97,0 760.42,340.44 760.42,760.41 l -0.03,188.24 294.28,-180.12 0.63,-8.12 c 0,-582.83 -472.46,-1055.3 -1055.3,-1055.3" /><path
         id="path38"
         style="fill:#38791e;fill-opacity:1;fill-rule:nonzero;stroke:none"
         d="m 1424.68,2248.62 c 108.59,198.95 257.06,373.01 434.68,511.42 14.65,10.58 29.08,21.45 43.28,32.6 179.88,130.91 387.31,226.25 611.97,275.66 -108.59,-198.95 -257.07,-373 -434.68,-511.41 -14.66,-10.58 -29.09,-21.45 -43.29,-32.6 -179.87,-130.91 -387.31,-226.25 -611.96,-275.67" /><path
         id="path40"
         style="fill:#b84911;fill-opacity:1;fill-rule:evenodd;stroke:none"
         d="m 512.902,2210.32 556.708,-0.12 c 121.91,0 240.72,13.26 355.07,38.42 -64.84,-118.81 -115.46,-246.49 -149.56,-380.77 l 261.62,-179.13 c 0,0 11.5,54.87 21.96,97.26 6.92,28.07 14.72,55.8 23.37,83.15 l -1.25,-4.27 257.86,-173.77 c 0,0 17.48,81.93 55.44,173.71 l 250.3,-173.91 c 97.25,307.93 385.18,531.16 725.26,531.16 l 990.59,0.11 519.21,-899.31 H 0.519531 L 512.902,2210.32" /><path
         id="path42"
         style="fill:#f36917;fill-opacity:1;fill-rule:nonzero;stroke:none"
         d="m 3169.38,1331.29 14.2,-8.44 h -18.56 l -2.56,1.53 c -0.67,0.39 -2.23,2.88 -2.3,3.65 l -9.05,101.94 c -0.04,0.41 0.67,2.92 0.91,3.25 l 57.22,76.83 c 0.15,0.2 2.02,1.57 2.26,1.65 l 99.55,34.32 c 0.81,0.28 3.75,-0.2 4.43,-0.72 l 98.47,-75.37 c 0.57,-0.43 1.86,-3.05 1.86,-3.77 l -0.34,-125.34 c 0,-0.8 -1.38,-3.42 -2.04,-3.88 l -20.38,-14.09 h -16.67 l 29.62,20.48 0.32,120.5 -94.58,72.4 -95.77,-33.02 -55.26,-74.2 z m 552.59,216.49 -11.09,-37.65 20.61,-32.12 34.46,-4.58 25.12,14.88 1.54,47.52 -28.86,25.2 -20.64,1.38 z m -6.77,6.84 23.87,16.52 c 0.27,0.2 2.68,0.86 3.02,0.84 l 23.89,-1.6 c 0.31,-0.02 2.57,-0.96 2.8,-1.16 l 31.75,-27.73 c 0.5,-0.43 1.64,-3.07 1.62,-3.72 l -1.69,-52.36 c -0.03,-0.89 -1.56,-3.47 -2.32,-3.93 l -28.77,-17.04 c -0.28,-0.17 -2.72,-0.67 -3.04,-0.62 l -38.26,5.09 c -0.62,0.08 -3.03,1.61 -3.37,2.14 l -22.96,35.78 c -0.33,0.51 -0.73,3.31 -0.56,3.9 l 12.17,41.33 c 0.1,0.33 1.57,2.37 1.85,2.56 z m 300.51,398.3 -46.55,-29.42 5.49,-109.32 90.01,-13.71 27.76,19.58 4.76,-8.25 -28.61,-20.17 c -0.37,-0.27 -2.99,-0.89 -3.45,-0.82 l -95.72,14.58 c -1.84,0.28 -3.93,2.59 -4.02,4.45 l -5.83,115.95 c -0.05,1.01 1.35,3.7 2.2,4.24 l 49.22,31.1 z m -351.62,222.96 c 0.63,-0.42 2.08,-2.97 2.12,-3.73 l 1.99,-41.45 c 0.03,-0.72 -1.13,-3.39 -1.67,-3.85 l -35,-29.62 c -0.91,-0.77 -3.95,-1.19 -5.03,-0.69 l -43.71,20 c -0.34,0.16 -2.16,1.97 -2.33,2.3 l -18.93,40.43 c -0.55,1.16 -0.1,4.21 0.76,5.17 l 25.38,28.38 c 0.42,0.48 3.06,1.6 3.69,1.58 l 45.72,-1.52 c 0.2,0 2.28,-0.67 2.46,-0.78 z m -7.23,-6.59 -21.43,14.16 -42.17,1.41 -21.82,-24.4 16.87,-36.02 39.39,-18.03 30.92,26.16 z m -23.4,-216.43 c 0.27,-0.86 -0.29,-3.81 -0.87,-4.5 l -25.89,-31.08 c -0.34,-0.42 -2.83,-1.67 -3.38,-1.7 l -46.41,-2.58 c -1.2,-0.07 -3.88,1.43 -4.45,2.5 l -20.27,38.02 c -0.23,0.44 -0.49,3.16 -0.34,3.64 l 12.22,39.47 c 0.32,1.04 2.61,3.06 3.69,3.26 l 38.22,6.87 c 0.55,0.1 3.26,-0.55 3.7,-0.88 l 34.04,-25.73 c 0.21,-0.16 1.57,-2.07 1.65,-2.32 z m -9.82,-0.44 -6.83,21.07 -31.19,23.58 -33.35,-6 -10.79,-34.83 17.93,-33.61 41.33,2.3 z m 431.45,-275.24 -25.99,39.95 -55.8,26.82 -62.93,-30.83 -21.83,-63.25 29.72,-60.52 60.77,-14.94 59.31,45.27 z m 9.71,-0.56 -17.8,-61.08 c -0.07,-0.28 -1.44,-2.27 -1.67,-2.45 l -62.36,-47.59 c -0.53,-0.41 -3.35,-1 -4,-0.84 l -65.12,16.01 c -0.62,0.15 -2.84,1.95 -3.12,2.51 l -31.57,64.28 c -0.22,0.45 -0.39,3.17 -0.23,3.64 l 23.12,66.96 c 0.16,0.46 1.96,2.5 2.39,2.71 l 66.76,32.7 c 0.61,0.3 3.51,0.32 4.13,0.02 l 59.07,-28.39 c 0.18,-0.09 1.81,-1.52 1.92,-1.69 l 27.9,-42.88 c 0.33,-0.51 0.75,-3.32 0.58,-3.91 z m -580.91,-54.37 -36.5,-14.44 -12.61,-36.01 17.6,-29.98 27.19,-10.62 38.39,28.04 2.09,38.25 -11.62,17.12 z m 1.22,9.55 27.72,-8.63 c 0.32,-0.1 2.33,-1.59 2.51,-1.87 l 13.45,-19.81 c 0.17,-0.25 0.83,-2.61 0.82,-2.92 l -2.31,-42.09 c -0.03,-0.66 -1.41,-3.18 -1.94,-3.57 l -42.3,-30.9 c -0.72,-0.53 -3.69,-0.91 -4.52,-0.59 l -31.14,12.17 c -0.31,0.12 -2.2,1.74 -2.36,2.02 l -19.55,33.29 c -0.32,0.54 -0.6,3.37 -0.39,3.96 l 14.06,40.13 c 0.2,0.57 2.17,2.62 2.73,2.84 l 40.07,15.85 c 0.31,0.13 2.83,0.22 3.15,0.12 z m -70.82,80.24 43.9,29.92 31.93,57.61 -27.11,57.82 -63.77,14.95 -65.63,-35.64 -19.88,-61.17 42.17,-52.89 z m 0.21,-9.67 -62.04,11.26 c -0.39,0.07 -2.62,1.41 -2.86,1.71 l -44.87,56.27 c -0.53,0.67 -1.07,3.61 -0.8,4.42 l 21.25,65.4 c 0.14,0.42 1.85,2.48 2.24,2.7 l 68.89,37.4 c 0.35,0.19 2.95,0.54 3.34,0.45 l 67.76,-15.89 c 0.66,-0.16 2.91,-1.98 3.21,-2.6 l 29.11,-62.08 c 0.33,-0.7 0.23,-3.64 -0.14,-4.31 l -33.65,-60.72 -47.92,-33.27 c -0.39,-0.27 -3.05,-0.83 -3.52,-0.74 z m 398.24,-379.52 2.99,110.45 c 0.02,0.97 1.6,3.56 2.45,4.02 l 103.78,57.2 c 0.45,0.25 3.19,0.53 3.68,0.38 l 94.86,-29.12 c 0.28,-0.09 2.26,-1.49 2.43,-1.73 l 39.51,-53.91 c 0.23,-0.31 0.93,-2.81 0.9,-3.19 l -6.93,-84.1 h -9.52 l 6.86,83.11 -37.54,51.22 -91.43,28.07 -99.65,-54.92 -2.91,-107.48 z m 363.51,49.45 c -0.72,-0.2 -3.61,0.38 -4.2,0.84 l -32.59,25.7 c -0.56,0.44 -1.82,3.07 -1.81,3.78 l 0.61,45.84 c 0.02,1.2 1.7,3.77 2.78,4.26 l 43.78,19.86 c 0.34,0.16 2.89,0.35 3.25,0.25 l 42.94,-12.24 c 1.23,-0.34 3.24,-2.69 3.4,-3.96 l 4.77,-37.78 c 0.08,-0.63 -0.8,-3.35 -1.23,-3.81 l -31.14,-33.51 c -0.14,-0.15 -2.01,-1.29 -2.2,-1.34 z m -0.22,9.78 24.75,6.88 28.72,30.91 -4.1,32.47 -38.25,10.89 -39.45,-17.9 -0.54,-40.5 z m -3.45,299.13 -40.19,-37.92 -0.38,-83.26 47.64,-30.28 70.72,16.73 4.94,-8.57 -75.42,-17.85 c -0.5,-0.11 -3.21,0.34 -3.64,0.61 l -51.53,32.76 c -0.76,0.48 -2.2,3.12 -2.2,4.02 l 0.4,87.92 c 0.01,0.52 1.11,3.06 1.49,3.42 l 43.3,40.86 z M 796.504,1539.66 c -0.024,-0.77 -1.441,-3.35 -2.082,-3.78 l -84.774,-57.34 c -0.335,-0.23 -2.886,-0.83 -3.289,-0.77 l -94.929,12.8 c -0.25,0.03 -2.352,1 -2.539,1.17 l -78.286,70.43 c -0.636,0.57 -1.644,3.38 -1.519,4.22 l 18.184,122.66 c 0.105,0.72 1.769,3.11 2.402,3.46 l 109.781,60.47 c 0.707,0.39 3.668,0.45 4.391,0.09 l 134.297,-66.5 c 1.089,-0.54 2.672,-3.18 2.636,-4.39 z m -9.402,2.71 4.109,137.05 -129.356,64.06 -105.554,-58.14 -17.465,-117.82 75.309,-67.75 91.691,-12.37 z m 157.32,-156.72 -57.07,70.89 -89.602,-62.03 6.699,-71.66 h -9.523 l -6.871,73.54 c -0.094,1 1.187,3.76 2.019,4.33 l 95.508,66.12 c 1.871,1.3 4.961,0.86 6.391,-0.92 l 61.172,-75.99 c 0.363,-0.45 1.078,-3.18 0.98,-3.75 l -10.633,-63.33 h -9.613 z m -719.539,40.69 -22.926,-103.49 h -9.711 l 22.711,102.51 -79.031,57.57 -42.2307,1.3 5.3789,9.32 38.6058,-1.18 c 0.25,-0.01 2.445,-0.76 2.644,-0.91 l 82.723,-60.26 c 1.019,-0.75 2.109,-3.63 1.836,-4.86 z m 379.176,5.51 -11.09,-37.65 20.609,-32.11 34.461,-4.59 25.113,14.88 1.539,47.52 -28.851,25.2 -20.649,1.38 z m -6.77,6.84 23.871,16.53 c 0.27,0.19 2.684,0.85 3.012,0.83 l 23.894,-1.6 c 0.309,-0.02 2.571,-0.95 2.801,-1.16 l 31.754,-27.73 c 0.492,-0.43 1.641,-3.06 1.617,-3.72 l -1.695,-52.36 c -0.027,-0.89 -1.555,-3.47 -2.32,-3.93 l -28.766,-17.04 c -0.277,-0.17 -2.715,-0.66 -3.039,-0.62 l -38.266,5.09 c -0.621,0.08 -3.027,1.61 -3.367,2.14 l -22.961,35.78 c -0.328,0.51 -0.73,3.32 -0.558,3.9 l 12.172,41.34 c 0.097,0.32 1.57,2.36 1.851,2.55 z m -136.867,26.31 37.183,-51.62 c 0.168,-0.24 0.895,-2.54 0.895,-2.83 l -0.887,-78.44 c -0.008,-0.67 -1.281,-3.26 -1.808,-3.67 l -7.102,-5.59 h -15.336 l 14.793,11.63 0.844,74.62 -35,48.6 -47.481,4.11 -55.488,-27.46 -14.453,-68.56 27.836,-42.94 h -11.301 l -25.554,39.42 c -0.262,0.41 -0.758,3.08 -0.657,3.55 l 15.328,72.73 c 0.141,0.68 1.918,2.97 2.536,3.28 l 58.738,29.06 c 0.18,0.09 2.316,0.5 2.512,0.48 l 50.964,-4.42 c 0.61,-0.05 3.082,-1.45 3.438,-1.95 z m 67.004,515.73 c 0.441,0.59 3.054,1.91 3.793,1.91 l 98.051,0.14 c 1.636,0 4.117,-1.87 4.566,-3.44 l 21.656,-76.18 0.031,-2.48 -17.914,-69.74 c -0.437,-1.7 -2.91,-3.58 -4.664,-3.56 l -101.882,1.63 c -1.161,0.02 -3.735,1.69 -4.223,2.74 l -41.211,88.74 c -0.441,0.95 -0.129,3.98 0.5,4.83 z m 6.179,-7.57 -38.187,-51.24 38.766,-83.48 95.175,-1.52 16.664,64.88 -20.324,71.49 z m -279.105,-210.4 92.305,-47.05 66.605,62.85 3.199,65.35 -73.382,65.77 -5.438,-2.66 7.32,12.68 c 0.864,-0.16 1.653,-0.46 2.071,-0.83 l 77.437,-69.41 c 0.496,-0.44 1.606,-3.09 1.574,-3.76 l -3.41,-69.5 c -0.019,-0.47 -1.144,-2.91 -1.48,-3.22 l -70.418,-66.46 c -1.055,-0.99 -4.121,-1.43 -5.406,-0.77 l -95.723,48.79 z m 210.941,365.36 7.832,-1.38 c 0.215,-0.04 2.219,-1.02 2.375,-1.17 l 18.68,-17.03 c 0.18,-0.17 1.352,-2.14 1.41,-2.38 l 9.676,-39.41 c 0.215,-0.88 -0.574,-3.78 -1.215,-4.44 l -32.367,-33.15 c -0.668,-0.68 -3.566,-1.52 -4.496,-1.3 l -33.707,8.1 c -0.207,0.05 -2.129,1.14 -2.277,1.29 l -11.571,11.79 4.918,8.51 12.465,-12.69 29.766,-7.15 28.648,29.34 -8.703,35.45 -16.598,15.14 -9.882,1.74 z m 608.099,-766.85 31.34,23.26 2.85,37.83 -24.62,24.27 -28.84,3.2 -29.66,-36.81 7.83,-37.28 15.57,-13.45 z m 1.29,-9.54 -28.86,1.16 c -0.33,0.01 -2.66,0.93 -2.91,1.15 l -18.02,15.57 c -0.24,0.21 -1.48,2.32 -1.54,2.62 l -8.63,41.04 c -0.14,0.64 0.54,3.44 0.95,3.94 l 32.7,40.59 c 0.55,0.7 3.32,1.84 4.21,1.74 l 33.06,-3.68 c 0.32,-0.04 2.57,-1.11 2.8,-1.33 l 27.36,-26.96 c 0.44,-0.44 1.44,-3.11 1.4,-3.73 l -3.18,-42.18 c -0.04,-0.6 -1.42,-3.09 -1.9,-3.45 l -34.42,-25.55 c -0.28,-0.21 -2.68,-0.95 -3.02,-0.93 z m 109.94,-28.88 2.18,14.04 c 0.09,0.63 1.68,3 2.23,3.33 l 60.96,36.86 c 0.43,0.25 3.13,0.66 3.61,0.54 l 68.37,-17.1 c 0.47,-0.12 2.65,-1.73 2.9,-2.15 l 21.43,-35.52 h -11.07 l -17.46,28.95 -64.56,16.15 -57.39,-34.7 -1.61,-10.4 z m 1830.78,61.73 31.34,23.27 2.85,37.83 -24.62,24.26 -28.85,3.21 -29.65,-36.81 7.83,-37.28 15.57,-13.45 z m 1.29,-9.53 -28.86,1.16 c -0.33,0.01 -2.66,0.93 -2.91,1.15 l -18.03,15.57 c -0.23,0.2 -1.47,2.31 -1.54,2.61 l -8.62,41.05 c -0.14,0.64 0.53,3.43 0.94,3.95 l 32.7,40.59 c 0.56,0.69 3.33,1.83 4.22,1.73 l 33.06,-3.68 c 0.32,-0.04 2.57,-1.11 2.8,-1.33 l 27.35,-26.96 c 0.45,-0.44 1.45,-3.11 1.41,-3.73 l -3.18,-42.18 c -0.05,-0.6 -1.41,-3.09 -1.9,-3.45 l -34.42,-25.55 c -0.28,-0.21 -2.68,-0.95 -3.02,-0.93 z m 85.17,257.78 c -0.6,0.43 -1.96,3.02 -1.97,3.76 l -1.84,97.53 c -0.04,1.63 1.79,4.15 3.36,4.62 l 75.4,22.87 c 0.61,0.19 3.45,-0.22 3.98,-0.58 l 63.6,-41.89 c 0.58,-0.39 2.06,-2.88 2.12,-3.57 l 6.23,-76.09 c 0.11,-1.36 -1.42,-4.05 -2.65,-4.65 l -87.55,-42.53 c -0.95,-0.46 -3.98,-0.2 -4.84,0.41 z m 7.46,6.31 51.62,-37.08 82.09,39.88 -5.78,70.55 -59.81,39.4 -69.85,-21.18 z m -241.77,-316.29 -30.86,76.97 -114.2,31.53 -76.02,-66.14 -11.1,-42.36 h -9.8 l 12.1,46.18 c 0.06,0.24 1.29,2.21 1.47,2.37 l 79.04,68.77 c 0.65,0.56 3.55,1.22 4.38,0.99 l 118.92,-32.83 c 0.69,-0.19 2.87,-2.13 3.14,-2.8 l 33.14,-82.68 z m 681.49,47.08 c -0.72,0.15 -3.02,1.96 -3.33,2.63 l -41.35,88.35 c -0.7,1.48 -0.05,4.52 1.19,5.59 l 59.58,51.56 c 0.49,0.42 3.24,1.2 3.87,1.09 l 75.14,-12.4 c 0.69,-0.12 3.05,-1.79 3.39,-2.41 l 36.64,-66.96 c 0.66,-1.21 0.35,-4.29 -0.53,-5.33 l -62.68,-74.47 c -0.68,-0.8 -3.56,-1.8 -4.59,-1.59 z m 4.25,8.8 62.24,-12.88 58.77,69.82 -33.98,62.1 -70.67,11.67 -55.19,-47.76 z m -1668.37,181.58 c -0.25,0.71 0.12,3.63 0.55,4.25 l 23.24,34.13 c 0.4,0.59 2.93,2.02 3.64,2.07 l 45.55,2.57 c 1.18,0.07 3.87,-1.43 4.43,-2.47 l 22.76,-42.07 c 0.17,-0.33 0.54,-2.87 0.47,-3.23 l -9.16,-43.46 c -0.27,-1.26 -2.46,-3.42 -3.72,-3.67 l -37.16,-7.36 c -0.63,-0.12 -3.4,0.57 -3.9,0.97 l -35.41,28.57 c -0.16,0.13 -1.43,1.92 -1.49,2.11 z m 9.74,0.9 8.54,-24.06 32.65,-26.35 31.91,6.32 8.16,38.69 -20.49,37.89 -40.2,-2.27 z m -59.76,-165.34 -51.72,126.19 -143.46,5.88 -72.39,-95.53 30.52,-109.56 h -9.84 l -30.44,109.28 c -0.2,0.69 0.35,3.56 0.78,4.13 l 75.31,99.38 c 0.49,0.64 3.17,1.91 3.98,1.87 l 148.97,-6.1 c 1.21,-0.05 3.73,-1.82 4.19,-2.94 l 53.78,-131.25 c 0.3,-0.72 0.05,-3.65 -0.35,-4.31 l -43.66,-70.06 h -11.17 z m 984.06,786.77 51.62,-37.08 82.09,39.88 -3,36.62 h 9.51 l 3.2,-39.08 c 0.11,-1.36 -1.42,-4.05 -2.65,-4.65 l -87.55,-42.53 c -0.95,-0.46 -3.99,-0.2 -4.84,0.41 l -55.84,40.12 c -0.6,0.43 -1.96,3.02 -1.97,3.76 l -0.75,39.57 9.47,0.69 z m -320.87,-780.9 -14.84,-31.49 18.29,-28.61 36.39,-6.1 28.12,11.64 5.89,40.34 -27.72,23.44 -22.2,2.47 z m -5.66,7.79 26.67,13.03 c 0.2,0.09 2.39,0.48 2.61,0.45 l 25,-2.79 c 0.23,-0.03 2.34,-0.94 2.53,-1.09 l 30.83,-26.07 c 0.7,-0.59 1.76,-3.4 1.63,-4.3 l -6.67,-45.61 c -0.13,-0.95 -1.99,-3.33 -2.87,-3.69 l -31.86,-13.2 c -0.2,-0.08 -2.4,-0.33 -2.6,-0.3 l -39.8,6.68 c -0.57,0.1 -2.91,1.65 -3.21,2.13 l -20.83,32.57 c -0.49,0.77 -0.68,3.76 -0.3,4.58 l 16.67,35.37 c 0.14,0.3 1.9,2.09 2.2,2.24 z m 80.69,73.38 c -0.83,0.07 -3.33,1.67 -3.74,2.39 l -52.92,93.65 c -0.53,0.94 -0.44,3.99 0.14,4.9 l 43.7,67.89 c 0.52,0.8 3.19,2.21 4.14,2.17 l 69.2,-2.18 c 0.46,-0.01 2.92,-1.09 3.24,-1.42 l 67.33,-68.9 c 1.3,-1.33 1.58,-4.43 0.53,-5.97 l -64.79,-95.62 c -0.56,-0.83 -3.3,-2.14 -4.31,-2.06 z m 3.28,9.24 57.26,-4.72 61.07,90.13 -63.29,64.76 -64.62,2.04 -40.7,-63.23 z m 1044.81,143.31 c -0.76,0.12 -3.15,1.84 -3.5,2.53 l -46.34,90.66 c -0.19,0.36 -0.47,2.97 -0.37,3.36 l 24.15,92.19 c 0.06,0.24 1.29,2.21 1.48,2.37 l 79.03,68.77 c 0.65,0.56 3.55,1.22 4.38,0.99 l 118.92,-32.83 c 0.69,-0.19 2.87,-2.13 3.14,-2.8 l 46.39,-115.74 c 0.31,-0.75 0.01,-3.69 -0.43,-4.37 l -81.96,-124.55 c -0.67,-1.01 -3.48,-2.26 -4.68,-2.08 z m 3.84,9 134.8,-20.66 78.93,119.94 -44.61,111.25 -114.2,31.53 -76.02,-66.14 -23.32,-89.03 z m -1342.68,129.49 -27.15,-162.39 c -0.13,-0.77 -1.9,-3.14 -2.61,-3.48 l -98.56,-47.79 c -0.98,-0.48 -4.02,-0.2 -4.89,0.45 l -116.56,86.41 c -0.39,0.29 -1.79,2.63 -1.86,3.11 l -13.91,93.54 c -0.14,0.95 0.95,3.77 1.71,4.38 l 20.01,16.17 8.1,-5.64 -20.05,-16.2 13.23,-88.92 112.67,-83.52 93.78,45.47 26.23,156.91 -73.62,47.94 4.54,8.36 76.85,-50.05 c 1.06,-0.69 2.3,-3.51 2.09,-4.75 z m 138.9,-175.7 31.34,23.26 2.85,37.83 -24.63,24.27 -28.84,3.21 -29.65,-36.82 7.83,-37.28 15.56,-13.44 z m 1.29,-9.54 -28.86,1.16 c -0.33,0.02 -2.66,0.93 -2.91,1.15 l -18.03,15.58 c -0.23,0.2 -1.47,2.31 -1.53,2.61 l -8.63,41.04 c -0.14,0.64 0.54,3.44 0.95,3.95 l 32.69,40.59 c 0.56,0.69 3.33,1.84 4.22,1.73 l 33.06,-3.68 c 0.32,-0.03 2.57,-1.1 2.8,-1.33 l 27.35,-26.96 c 0.45,-0.43 1.45,-3.1 1.41,-3.73 l -3.18,-42.18 c -0.05,-0.6 -1.42,-3.09 -1.9,-3.44 l -34.42,-25.56 c -0.28,-0.2 -2.68,-0.94 -3.02,-0.93 z m 109.55,554.58 13.66,-12.46 c 0.17,-0.16 1.35,-2.14 1.4,-2.37 l 9.63,-39.21 c 0.22,-0.89 -0.57,-3.79 -1.21,-4.44 l -32.2,-32.98 c -0.67,-0.69 -3.57,-1.52 -4.5,-1.3 l -33.54,8.05 c -0.2,0.05 -2.12,1.14 -2.27,1.29 l -28.27,28.8 c -0.4,0.4 -1.39,3.03 -1.35,3.6 l 0.37,6.21 9.87,6.34 -0.65,-11.01 25.84,-26.33 29.59,-7.1 28.49,29.17 -8.66,35.25 -15.25,13.91 z m 382.22,-65.4 c -0.25,0.72 0.13,3.63 0.56,4.25 l 23.23,34.13 c 0.4,0.59 2.94,2.03 3.65,2.07 l 45.54,2.58 c 1.19,0.06 3.87,-1.44 4.44,-2.48 l 22.75,-42.06 c 0.18,-0.33 0.55,-2.87 0.47,-3.24 l -9.16,-43.46 c -0.26,-1.25 -2.46,-3.42 -3.72,-3.67 l -37.16,-7.35 c -0.62,-0.12 -3.4,0.56 -3.9,0.96 l -35.41,28.58 c -0.16,0.12 -1.42,1.91 -1.49,2.1 z m 9.74,0.91 8.55,-24.07 32.64,-26.35 31.92,6.32 8.16,38.69 -20.5,37.89 -40.2,-2.27 z m -539.21,-257.68 c -0.48,0.34 -1.9,2.8 -1.95,3.39 l -8.18,84.67 c -0.1,1.04 1.19,3.79 2.06,4.38 l 69.26,46.85 c 0.6,0.4 3.49,0.79 4.17,0.56 l 82.16,-27.72 c 1.65,-0.56 3.35,-3.16 3.21,-4.89 l -8.83,-104.68 c -0.08,-0.93 -1.77,-3.42 -2.61,-3.84 l -78.57,-39.23 c -0.96,-0.48 -4,-0.23 -4.88,0.39 z m 7.28,6.44 51.77,-37.19 73.63,36.76 8.29,98.32 -76.42,25.79 -64.98,-43.95 z m 291.96,-70.87 c 0.29,0.85 2.52,2.86 3.39,3.07 l 39.18,9.19 c 0.53,0.13 3.27,-0.37 3.72,-0.67 l 38.43,-25.74 c 1,-0.66 2.23,-3.48 2.05,-4.67 l -6.66,-42.35 c -0.08,-0.49 -1.51,-2.82 -1.91,-3.11 l -33.35,-24.04 c -0.89,-0.64 -3.93,-0.88 -4.91,-0.39 l -34.49,17.43 c -0.49,0.25 -2.27,2.4 -2.41,2.93 l -11.65,40.82 c -0.07,0.25 0,2.6 0.08,2.84 z m 8.1,-5.56 -7.18,-20.81 10.66,-37.39 30.06,-15.19 29.41,21.2 5.88,37.41 -34.2,22.9 z m 124.62,-107.69 -3.29,-47.52 28.27,-54.71 68.44,-13.17 55.5,37.37 15.56,46.32 -32.6,57.55 -79.13,21.23 z m -7.75,5.79 56.1,50.06 c 0.64,0.57 3.55,1.26 4.38,1.03 l 83.52,-22.4 c 0.48,-0.13 2.65,-1.81 2.89,-2.24 l 34.63,-61.11 c 0.29,-0.5 0.55,-3.3 0.37,-3.85 l -16.74,-49.85 c -0.1,-0.3 -1.59,-2.25 -1.85,-2.42 l -58.46,-39.37 c -0.4,-0.27 -3.06,-0.81 -3.54,-0.72 l -72.62,13.98 c -0.67,0.13 -2.99,1.87 -3.31,2.48 l -29.94,57.93 c -0.09,0.17 -0.52,2.3 -0.51,2.5 l 3.5,50.77 c 0.04,0.47 1.23,2.9 1.58,3.21 z m 104.79,115.66 37.62,-10.37 31.57,21.04 3.96,34.34 -15.23,24.7 -47.27,0.71 -24.55,-29.13 -1.02,-20.54 z m -6.72,-6.89 -16.86,23.45 c -0.19,0.27 -0.9,2.67 -0.88,3 l 1.17,23.8 c 0.01,0.3 0.91,2.59 1.11,2.82 l 27.03,32.06 c 0.43,0.51 3.04,1.7 3.7,1.69 l 52.11,-0.78 c 0.9,-0.01 3.5,-1.49 3.97,-2.25 l 17.45,-28.32 c 0.17,-0.27 0.71,-2.7 0.67,-3.02 l -4.4,-38.16 c -0.07,-0.62 -1.56,-3.06 -2.07,-3.4 l -35.2,-23.46 c -0.5,-0.34 -3.3,-0.79 -3.89,-0.63 l -41.32,11.39 c -0.33,0.09 -2.4,1.53 -2.59,1.81 z m 907.37,212.68 -14.84,-31.49 18.29,-28.6 36.38,-6.11 28.12,11.65 5.89,40.34 -27.71,23.43 -22.2,2.48 z m -5.66,7.79 26.66,13.03 c 0.2,0.1 2.39,0.48 2.61,0.45 l 25,-2.79 c 0.24,-0.03 2.35,-0.93 2.53,-1.09 l 30.83,-26.06 c 0.7,-0.59 1.77,-3.4 1.64,-4.31 l -6.67,-45.61 c -0.14,-0.94 -1.99,-3.32 -2.88,-3.69 l -31.86,-13.2 c -0.2,-0.08 -2.39,-0.33 -2.6,-0.29 l -39.8,6.68 c -0.56,0.09 -2.9,1.64 -3.21,2.12 l -20.83,32.58 c -0.49,0.76 -0.68,3.75 -0.29,4.57 l 16.66,35.37 c 0.14,0.31 1.91,2.09 2.21,2.24 z m -1487.34,-478.9 -52.78,2.51 -59.85,-26.65 -13.07,-62.14 41.7,-50.04 73.47,-10.98 52.4,36.68 -1.84,67.25 z m 5.65,7.86 42.55,-46.1 c 0.27,-0.29 1.24,-2.7 1.25,-3.09 l 1.96,-71.58 c 0.03,-0.85 -1.31,-3.52 -2.02,-4.01 l -56.03,-39.23 c -0.37,-0.26 -2.98,-0.87 -3.42,-0.81 l -77.12,11.53 c -0.4,0.06 -2.68,1.34 -2.94,1.65 l -44.33,53.19 c -0.44,0.53 -1.14,3.34 -1,4.01 l 14.04,66.76 c 0.16,0.75 2,3.04 2.71,3.36 l 63.09,28.09 2.15,0.41 55.85,-2.66 c 0.48,-0.03 2.93,-1.18 3.26,-1.52 z m 985.82,714.67 12.77,-28.88 c 0.45,-0.99 0.06,-4.02 -0.62,-4.87 l -90.42,-113.47 c -0.31,-0.38 -2.69,-1.7 -3.18,-1.75 l -93.97,-10.64 c -0.96,-0.11 -3.73,1.08 -4.32,1.86 l -80.67,107.26 c -0.18,0.25 -0.95,2.6 -0.95,2.91 l 0.64,47.55 h 9.48 l -0.62,-46.05 78.07,-103.81 89.32,10.11 87.41,109.69 -13.31,30.09 z m 26.97,-204.86 c 0.7,-0.28 2.65,-2.47 2.85,-3.21 l 10.51,-39.92 c 0.18,-0.69 -0.4,-3.55 -0.84,-4.11 l -27.93,-36.07 c -0.73,-0.94 -3.62,-1.98 -4.78,-1.72 l -46.68,10.43 c -0.35,0.08 -2.52,1.47 -2.74,1.76 l -26.79,35.43 c -0.77,1.02 -0.97,4.1 -0.33,5.21 l 18.83,32.87 c 0.31,0.55 2.65,2.2 3.28,2.31 l 44.8,7.98 c 0.2,0.04 2.38,-0.18 2.56,-0.25 z m -5.71,-7.94 -23.76,9.33 -41.31,-7.35 -16.17,-28.23 23.85,-31.54 42.04,-9.39 24.66,31.83 z m -268.82,-6.19 c 0.45,0.37 3.16,1.14 3.74,1.05 l 106.38,-15.96 c 1.07,-0.16 3.42,-2.11 3.77,-3.13 l 26.59,-76.23 c 0.32,-0.9 -0.22,-3.87 -0.83,-4.6 l -44.32,-53.19 c -0.29,-0.35 -2.67,-1.62 -3.12,-1.67 l -95.74,-10.64 c -1.01,-0.11 -3.78,1.12 -4.37,1.95 l -67.44,93.85 c -1.32,1.85 -0.93,4.94 0.82,6.41 z m 4.44,-8.64 -69.5,-57.98 63.24,-88.03 91.09,10.13 41.38,49.66 -24.77,71 z m -263.14,106.08 c 0.77,0 3.38,-1.38 3.82,-2.01 l 58.51,-83.33 c 0.23,-0.33 0.87,-2.87 0.83,-3.27 l -11.08,-94.66 c -0.03,-0.24 -0.97,-2.37 -1.13,-2.55 l -68.7,-79.1 c -0.56,-0.65 -3.35,-1.7 -4.2,-1.59 l -122.33,15.95 c -0.71,0.1 -3.14,1.72 -3.5,2.35 l -62.05,108.14 c -0.4,0.7 -0.52,3.66 -0.17,4.4 l 63.82,134.74 c 0.52,1.09 3.13,2.72 4.35,2.71 z m -2.54,-9.44 -136.37,1.7 -61.47,-129.76 59.65,-103.96 117.49,-15.32 66.07,76.07 10.7,91.4 z m -1836.498,-588.79 37.318,29.22 21.74,57.6 -35.995,59.68 -64.563,16.15 -57.387,-34.69 -9.535,-61.5 50,-54.85 z m 0.285,-9.72 -62.082,12.34 c -0.285,0.06 -2.387,1.24 -2.578,1.45 l -52.578,57.68 c -0.453,0.5 -1.285,3.26 -1.184,3.92 l 10.223,65.92 c 0.098,0.63 1.687,3.01 2.23,3.33 l 60.969,36.87 c 0.422,0.25 3.121,0.66 3.602,0.54 l 68.371,-17.1 c 0.473,-0.12 2.66,-1.74 2.91,-2.16 l 38.2,-63.32 c 0.35,-0.59 0.61,-3.47 0.37,-4.12 l -23.02,-61 c -0.07,-0.19 -1.35,-1.94 -1.51,-2.06 l -40.079,-31.37 c -0.481,-0.38 -3.246,-1.04 -3.844,-0.92 z m 1117.043,-169.75 -3.5,42.76 -59.82,39.4 -69.84,-21.18 1.16,-60.98 h -9.49 l -1.21,64.39 c -0.03,1.64 1.8,4.15 3.36,4.62 l 75.4,22.87 c 0.62,0.18 3.45,-0.23 3.98,-0.58 l 63.6,-41.9 c 0.58,-0.37 2.06,-2.87 2.12,-3.57 l 3.75,-45.83 z m -579.03,219.39 31.33,23.27 2.86,37.83 -24.63,24.26 -28.84,3.21 -29.65,-36.81 7.83,-37.28 15.56,-13.45 z m 1.29,-9.54 -28.87,1.17 c -0.33,0.01 -2.65,0.93 -2.9,1.15 l -18.03,15.57 c -0.23,0.2 -1.48,2.31 -1.54,2.61 l -8.62,41.05 c -0.14,0.64 0.53,3.43 0.94,3.95 l 32.7,40.58 c 0.56,0.7 3.33,1.84 4.22,1.74 l 33.06,-3.68 c 0.32,-0.04 2.57,-1.11 2.8,-1.33 l 27.36,-26.96 c 0.44,-0.44 1.44,-3.11 1.39,-3.73 l -3.18,-42.18 c -0.04,-0.6 -1.41,-3.09 -1.89,-3.45 l -34.43,-25.55 c -0.27,-0.21 -2.67,-0.95 -3.01,-0.94 z m 176.26,147.48 88.27,1.92 23.73,37.97 7.86,-5.3 -24.91,-39.86 c -0.46,-0.74 -3.06,-2.21 -3.92,-2.23 l -93.7,-2.04 c -1.09,-0.02 -3.73,1.5 -4.26,2.46 l -34.63,63.15 c -0.26,0.48 -0.51,3.25 -0.34,3.77 l 22.8,68.4 8.16,-5.5 -21.31,-63.93 z m 2234.89,352.55 -145.53,-8.37 c -0.98,-0.06 -3.68,1.29 -4.23,2.11 l -56.25,85 c -0.31,0.47 -0.78,3.23 -0.64,3.77 l 26.72,106.9 h 9.77 l -26.79,-107.18 53.59,-80.98 140.33,8.07 24.99,41.09 5.4,-9.36 -23.58,-38.78 c -0.42,-0.7 -2.97,-2.22 -3.78,-2.27 z m -3613.156,-503.6 31.336,23.26 2.852,37.83 -24.625,24.26 -28.84,3.22 -29.657,-36.82 7.833,-37.28 15.562,-13.44 z m 1.289,-9.54 -28.863,1.16 c -0.332,0.02 -2.656,0.93 -2.906,1.15 l -18.028,15.58 c -0.23,0.2 -1.476,2.31 -1.539,2.61 l -8.625,41.04 c -0.137,0.64 0.535,3.44 0.946,3.95 l 32.699,40.59 c 0.558,0.69 3.328,1.83 4.215,1.74 l 33.058,-3.69 c 0.324,-0.03 2.57,-1.1 2.801,-1.33 l 27.359,-26.96 c 0.446,-0.43 1.446,-3.11 1.399,-3.73 l -3.18,-42.18 c -0.043,-0.6 -1.414,-3.09 -1.898,-3.45 l -34.422,-25.55 c -0.274,-0.2 -2.676,-0.95 -3.016,-0.93 z m 431.113,591.48 c -0.253,0.72 0.122,3.63 0.547,4.25 l 23.239,34.14 c 0.402,0.58 2.937,2.02 3.648,2.06 l 45.543,2.58 c 1.187,0.06 3.871,-1.43 4.437,-2.48 l 22.75,-42.07 c 0.18,-0.32 0.547,-2.86 0.469,-3.23 l -9.16,-43.46 c -0.262,-1.25 -2.457,-3.42 -3.715,-3.67 l -37.16,-7.35 c -0.625,-0.13 -3.402,0.56 -3.898,0.96 l -35.414,28.58 c -0.157,0.13 -1.422,1.91 -1.489,2.1 z m 9.739,0.91 8.543,-24.07 32.648,-26.34 31.914,6.31 8.156,38.69 -20.492,37.89 -40.203,-2.27 z m -188.328,41.41 51.617,-37.09 82.09,39.89 -4.43,54.09 h 9.508 l 4.633,-56.55 c 0.113,-1.37 -1.418,-4.05 -2.653,-4.65 l -87.547,-42.53 c -0.949,-0.46 -3.984,-0.21 -4.836,0.41 l -55.843,40.11 c -0.598,0.43 -1.957,3.03 -1.973,3.76 l -1.121,59.48 h 9.48 z M 1039.53,1753.2 c 0.29,0.85 2.52,2.86 3.4,3.07 l 39.18,9.19 c 0.53,0.13 3.27,-0.37 3.71,-0.67 l 38.43,-25.74 c 1,-0.67 2.24,-3.48 2.05,-4.67 l -6.66,-42.35 c -0.08,-0.49 -1.51,-2.82 -1.91,-3.11 l -33.35,-24.04 c -0.88,-0.64 -3.93,-0.88 -4.9,-0.38 l -34.49,17.42 c -0.49,0.25 -2.27,2.4 -2.42,2.93 l -11.64,40.82 c -0.07,0.25 -0.01,2.6 0.07,2.85 z m 8.11,-5.56 -7.19,-20.81 10.66,-37.38 30.07,-15.2 29.4,21.2 5.88,37.41 -34.19,22.91 z m 108.82,-177.19 -3.26,-47.29 28.27,-54.7 68.44,-13.18 55.19,37.17 12.62,65.87 -39.33,48.23 -74.21,-0.46 z m -7.41,6.29 50.71,37.88 c 0.23,0.17 2.52,0.94 2.81,0.94 l 78.04,0.48 c 0.67,0.01 3.28,-1.22 3.7,-1.74 l 42.15,-51.71 c 0.4,-0.49 1.1,-3.26 0.99,-3.89 l -13.41,-69.97 c -0.09,-0.48 -1.59,-2.76 -2,-3.04 l -58.46,-39.37 c -0.4,-0.27 -3.07,-0.81 -3.55,-0.72 l -72.61,13.99 c -0.68,0.13 -3,1.86 -3.31,2.48 l -29.94,57.92 c -0.09,0.18 -0.53,2.3 -0.52,2.5 l 3.51,50.78 c 0.04,0.61 1.4,3.1 1.89,3.47 z m 249.72,-211.52 37.62,-10.37 31.57,21.04 3.96,34.35 -15.23,24.7 -47.27,0.7 -24.55,-29.12 -1.02,-20.54 z m -6.73,-6.89 -16.85,23.46 c -0.19,0.27 -0.9,2.67 -0.89,3 l 1.18,23.8 c 0.02,0.3 0.91,2.59 1.11,2.82 l 27.03,32.06 c 0.43,0.51 3.04,1.7 3.7,1.69 l 52.11,-0.78 c 0.89,-0.01 3.5,-1.49 3.96,-2.25 l 17.46,-28.32 c 0.17,-0.27 0.71,-2.7 0.67,-3.02 l -4.39,-38.16 c -0.08,-0.62 -1.56,-3.06 -2.09,-3.4 l -35.19,-23.46 c -0.51,-0.34 -3.3,-0.79 -3.89,-0.63 l -41.33,11.39 c -0.33,0.09 -2.39,1.53 -2.59,1.8 z m -137.96,815.08 -52.79,2.51 -59.84,-26.65 -13.07,-62.14 41.7,-50.04 73.47,-10.98 52.4,36.69 -1.84,67.25 z m 5.65,7.86 42.55,-46.1 c 0.26,-0.29 1.24,-2.69 1.25,-3.08 l 1.96,-71.58 c 0.03,-0.86 -1.31,-3.52 -2.02,-4.01 l -56.03,-39.24 c -0.37,-0.26 -2.98,-0.87 -3.42,-0.8 l -77.13,11.52 c -0.4,0.06 -2.68,1.34 -2.94,1.65 l -44.32,53.19 c -0.44,0.53 -1.14,3.34 -1,4.02 l 14.03,66.75 c 0.16,0.75 2.01,3.05 2.72,3.36 l 63.08,28.09 2.16,0.41 55.85,-2.66 c 0.48,-0.03 2.93,-1.17 3.26,-1.52 z m -13.2,-222.48 54.84,1.03 -2.99,-9.53 -49.6,-0.94 -78.19,-87.72 -0.84,-63.14 55.83,-77.04 112.03,-16.02 61.68,77.4 7.84,-5.37 -63.8,-80.06 c -0.61,-0.76 -3.42,-1.88 -4.38,-1.74 l -116.7,16.7 c -0.51,0.07 -2.87,1.49 -3.17,1.91 l -57.93,79.93 c -0.17,0.24 -0.91,2.55 -0.9,2.84 l 0.88,66.49 c 0.01,0.38 0.95,2.8 1.2,3.09 l 80.75,90.59 c 0.37,0.41 2.9,1.57 3.45,1.58 z m -134.42,55.37 c 0.71,-0.28 2.66,-2.47 2.85,-3.2 l 10.51,-39.93 c 0.19,-0.69 -0.4,-3.55 -0.83,-4.11 l -27.94,-36.06 c -0.72,-0.95 -3.61,-1.98 -4.77,-1.73 l -46.68,10.43 c -0.36,0.08 -2.52,1.47 -2.75,1.76 l -26.79,35.43 c -0.77,1.02 -0.96,4.1 -0.33,5.21 l 18.83,32.88 c 0.32,0.55 2.66,2.2 3.28,2.3 l 44.81,7.99 c 0.2,0.03 2.37,-0.19 2.56,-0.26 z m -5.7,-7.95 -23.77,9.34 -41.3,-7.35 -16.18,-28.23 23.86,-31.54 42.03,-9.39 24.66,31.84 z m -217.187,204.03 -9.328,-21.9 58.566,-64.37 91.319,10.15 50.14,65.91 -3.82,10.18 10.1,0.08 3.51,-9.38 c 0.32,-0.85 -0.12,-3.82 -0.66,-4.53 l -52.96,-69.62 c -0.31,-0.42 -2.72,-1.78 -3.24,-1.84 l -95.745,-10.63 c -0.761,-0.09 -3.511,0.95 -4.027,1.51 l -62.238,68.4 c -0.82,0.9 -1.332,3.93 -0.856,5.05 l 8.942,20.99 z m -42.926,-208.67 c 0.203,0.06 2.418,0.07 2.621,0.01 l 97.91,-27.94 c 0.391,-0.11 2.488,-1.68 2.707,-2.03 l 50.955,-80.53 c 0.13,-0.21 0.74,-2.45 0.73,-2.7 l -3.615,-104.7 c -0.027,-0.85 -1.527,-3.43 -2.253,-3.88 l -105.114,-64.58 c -0.777,-0.48 -3.777,-0.61 -4.59,-0.21 l -206.777,102.74 c -2.082,1.03 -3.164,3.96 -2.254,6.1 l 61.621,144.57 c 0.258,0.61 2.41,2.51 3.039,2.7 z m 1.332,-9.48 -101.551,-29.45 -58.988,-138.39 200.426,-99.58 100.707,61.88 3.472,100.7 -49.207,77.77 z m 2531.481,61.28 c -0.59,0.43 -1.96,3.02 -1.97,3.76 l -1.84,97.53 c -0.03,1.64 1.8,4.15 3.36,4.63 l 75.41,22.87 c 0.61,0.18 3.44,-0.23 3.98,-0.58 l 63.59,-41.9 c 0.59,-0.38 2.06,-2.88 2.12,-3.57 l 6.23,-76.08 c 0.12,-1.37 -1.42,-4.05 -2.65,-4.65 l -87.55,-42.54 c -0.95,-0.46 -3.98,-0.2 -4.84,0.42 z m 7.46,6.31 51.62,-37.08 82.09,39.88 -5.78,70.56 -59.81,39.4 -69.85,-21.18 1.73,-91.58" /></g></g></svg>